<svg width="163" height="40" viewBox="0 0 163 40" fill="none" xmlns="http://www.w3.org/2000/svg">
<rect y="20" width="97.5" height="20" fill="#FFE9DF"/>
<path d="M30.6052 7.87459V8.52785C29.952 8.54962 29.4512 8.63672 29.1027 8.78915C28.7761 8.9198 28.5584 9.18111 28.4495 9.57306C28.3406 9.94324 28.2862 10.5312 28.2862 11.3369V27.5377C28.2862 28.3216 28.3406 28.9096 28.4495 29.3015C28.5801 29.6935 28.8088 29.9548 29.1354 30.0854C29.462 30.2161 29.952 30.3032 30.6052 30.3467V31C29.9302 30.9564 29.0701 30.9347 28.0249 30.9347C26.9797 30.9129 25.9127 30.902 24.8239 30.902C23.648 30.902 22.5375 30.9129 21.4923 30.9347C20.4688 30.9347 19.6414 30.9564 19.0099 31V30.3467C19.7502 30.3032 20.3055 30.2161 20.6757 30.0854C21.0676 29.9548 21.3289 29.6935 21.4596 29.3015C21.5903 28.9096 21.6556 28.3216 21.6556 27.5377V10.063L21.9822 9.99768L13.7838 30.9673H13.2612L4.05021 9.99768V24.598C4.05021 26.057 4.10465 27.1784 4.21353 27.9623C4.34418 28.7245 4.63815 29.2797 5.09543 29.6282C5.57449 29.9548 6.32574 30.1943 7.34918 30.3467V31C6.91367 30.9564 6.34751 30.9347 5.6507 30.9347C4.95389 30.9129 4.30063 30.902 3.69092 30.902C3.21186 30.902 2.72192 30.9129 2.22109 30.9347C1.72025 30.9347 1.30652 30.9564 0.97989 31V30.3467C1.65493 30.1943 2.15576 29.9657 2.48239 29.6608C2.80902 29.3342 3.02677 28.8225 3.13565 28.1257C3.24453 27.4288 3.29896 26.4707 3.29896 25.2513V11.3369C3.29896 10.5312 3.24453 9.94324 3.13565 9.57306C3.02677 9.18111 2.79813 8.9198 2.44973 8.78915C2.1231 8.63672 1.63315 8.54962 0.97989 8.52785V7.87459C1.30652 7.89636 1.72025 7.91814 2.22109 7.93991C2.72192 7.96169 3.21186 7.97257 3.69092 7.97257C4.95389 7.97257 6.16242 7.96169 7.31652 7.93991C8.47061 7.91814 9.51583 7.89636 10.4522 7.87459L16.9194 22.4423L15.9396 23.5202L21.9822 7.97257C22.4177 7.97257 22.8859 7.97257 23.3867 7.97257C23.8876 7.97257 24.3666 7.97257 24.8239 7.97257C25.9127 7.97257 26.9797 7.96169 28.0249 7.93991C29.0701 7.91814 29.9302 7.89636 30.6052 7.87459ZM48.1205 14.0479V14.7338C47.7068 14.8862 47.304 15.1911 46.912 15.6484C46.5418 16.0839 46.1716 16.8351 45.8015 17.9021L41.7186 30.0528L40.0528 33.8743L32.2136 16.5629C31.8435 15.7355 31.4951 15.2238 31.1684 15.0278C30.8418 14.8318 30.5587 14.7338 30.3192 14.7338V14.0479C31.1902 14.1132 32.0939 14.1677 33.0302 14.2112C33.9666 14.233 34.8376 14.2439 35.6433 14.2439C36.6667 14.2439 37.5486 14.2221 38.289 14.1785C39.0293 14.135 39.7261 14.0914 40.3794 14.0479V14.7338C39.9874 14.7338 39.6173 14.7556 39.2689 14.7991C38.9204 14.8427 38.67 14.9516 38.5176 15.1258C38.3652 15.2782 38.3761 15.5613 38.5503 15.975L42.7311 25.9046L42.3718 26.1659L43.9397 21.3644C44.68 19.1651 44.8107 17.5319 44.3316 16.465C43.8526 15.3762 43.134 14.7991 42.1759 14.7338V14.0479C42.6331 14.0914 43.2211 14.1241 43.9397 14.1459C44.6582 14.1677 45.2135 14.1785 45.6055 14.1785C45.9974 14.1785 46.4547 14.1677 46.9773 14.1459C47.4999 14.1241 47.881 14.0914 48.1205 14.0479ZM41.7186 30.0528L40.3467 34.005C39.9548 35.1373 39.4757 35.9212 38.9096 36.3567C38.6265 36.5745 38.2454 36.7596 37.7664 36.912C37.3091 37.0644 36.6776 37.1406 35.8719 37.1406C35.2622 37.1406 34.6089 37.0427 33.9121 36.8467C33.2371 36.6507 32.6491 36.3241 32.1483 35.8668C31.6693 35.4313 31.4297 34.8325 31.4297 34.0703C31.4297 33.3082 31.7237 32.6985 32.3116 32.2412C32.8996 31.7839 33.6726 31.5553 34.6307 31.5553C35.5235 31.5553 36.2312 31.7512 36.7538 32.1432C37.2982 32.5569 37.5704 33.1666 37.5704 33.9723C37.5704 34.4514 37.3962 34.9304 37.0478 35.4095C36.7211 35.8886 36.1876 36.2479 35.4473 36.4874C35.6215 36.5092 35.8175 36.52 36.0352 36.52C36.253 36.5418 36.4272 36.5527 36.5578 36.5527C37.2546 36.5527 37.8752 36.335 38.4196 35.8995C38.964 35.4857 39.3777 34.8325 39.6608 33.9397L40.804 30.3794L41.7186 30.0528ZM78.1325 7.87459V8.52785C77.4792 8.54962 76.9784 8.63672 76.63 8.78915C76.3034 8.9198 76.0856 9.18111 75.9767 9.57306C75.8678 9.94324 75.8134 10.5312 75.8134 11.3369V27.5377C75.8134 28.3216 75.8678 28.9096 75.9767 29.3015C76.1074 29.6935 76.336 29.9548 76.6626 30.0854C76.9893 30.2161 77.4792 30.3032 78.1325 30.3467V31C77.4574 30.9564 76.5973 30.9347 75.5521 30.9347C74.5069 30.9129 73.4399 30.902 72.3511 30.902C71.1753 30.902 70.0647 30.9129 69.0195 30.9347C67.9961 30.9347 67.1686 30.9564 66.5371 31V30.3467C67.2775 30.3032 67.8327 30.2161 68.2029 30.0854C68.5949 29.9548 68.8562 29.6935 68.9868 29.3015C69.1175 28.9096 69.1828 28.3216 69.1828 27.5377V10.063L69.5094 9.99768L61.311 30.9673H60.7884L51.5775 9.99768V24.598C51.5775 26.057 51.6319 27.1784 51.7408 27.9623C51.8714 28.7245 52.1654 29.2797 52.6227 29.6282C53.1017 29.9548 53.853 30.1943 54.8764 30.3467V31C54.4409 30.9564 53.8747 30.9347 53.1779 30.9347C52.4811 30.9129 51.8279 30.902 51.2182 30.902C50.7391 30.902 50.2492 30.9129 49.7483 30.9347C49.2475 30.9347 48.8338 30.9564 48.5071 31V30.3467C49.1822 30.1943 49.683 29.9657 50.0096 29.6608C50.3363 29.3342 50.554 28.8225 50.6629 28.1257C50.7718 27.4288 50.8262 26.4707 50.8262 25.2513V11.3369C50.8262 10.5312 50.7718 9.94324 50.6629 9.57306C50.554 9.18111 50.3254 8.9198 49.977 8.78915C49.6503 8.63672 49.1604 8.54962 48.5071 8.52785V7.87459C48.8338 7.89636 49.2475 7.91814 49.7483 7.93991C50.2492 7.96169 50.7391 7.97257 51.2182 7.97257C52.4811 7.97257 53.6897 7.96169 54.8438 7.93991C55.9978 7.91814 57.0431 7.89636 57.9794 7.87459L64.4467 22.4423L63.4668 23.5202L69.5094 7.97257C69.945 7.97257 70.4131 7.97257 70.914 7.97257C71.4148 7.97257 71.8938 7.97257 72.3511 7.97257C73.4399 7.97257 74.5069 7.96169 75.5521 7.93991C76.5973 7.91814 77.4574 7.89636 78.1325 7.87459ZM87.8109 13.5906C89.5094 13.5906 90.9793 13.8846 92.2204 14.4725C93.4834 15.0387 94.4633 15.975 95.1601 17.2815C95.8569 18.5881 96.2053 20.341 96.2053 22.5403C96.2053 24.7396 95.8569 26.4925 95.1601 27.799C94.4633 29.1055 93.4834 30.0419 92.2204 30.608C90.9793 31.1742 89.5094 31.4573 87.8109 31.4573C86.1342 31.4573 84.6644 31.1742 83.4014 30.608C82.1385 30.0419 81.1586 29.1055 80.4618 27.799C79.765 26.4925 79.4165 24.7396 79.4165 22.5403C79.4165 20.341 79.765 18.5881 80.4618 17.2815C81.1586 15.975 82.1385 15.0387 83.4014 14.4725C84.6644 13.8846 86.1342 13.5906 87.8109 13.5906ZM87.8109 14.2439C87.1577 14.2439 86.6133 14.8971 86.1778 16.2037C85.7423 17.5102 85.5245 19.6224 85.5245 22.5403C85.5245 25.4582 85.7423 27.5704 86.1778 28.8769C86.6133 30.1616 87.1577 30.804 87.8109 30.804C88.4642 30.804 89.0086 30.1616 89.4441 28.8769C89.8796 27.5704 90.0974 25.4582 90.0974 22.5403C90.0974 19.6224 89.8796 17.5102 89.4441 16.2037C89.0086 14.8971 88.4642 14.2439 87.8109 14.2439ZM110.811 13.5906C111.813 13.5906 112.597 13.7213 113.163 13.9826C113.751 14.2221 114.197 14.527 114.502 14.8971C114.829 15.2891 115.068 15.8117 115.221 16.465C115.373 17.1182 115.449 18.0001 115.449 19.1107V27.9623C115.449 28.8769 115.58 29.4975 115.841 29.8241C116.124 30.1508 116.604 30.3141 117.279 30.3141V31C116.843 30.9782 116.179 30.9564 115.286 30.9347C114.415 30.8911 113.555 30.8693 112.706 30.8693C111.791 30.8693 110.898 30.8911 110.027 30.9347C109.156 30.9564 108.503 30.9782 108.068 31V30.3141C108.634 30.3141 109.026 30.1508 109.243 29.8241C109.461 29.4975 109.57 28.8769 109.57 27.9623V17.3469C109.57 16.8896 109.516 16.5085 109.407 16.2037C109.298 15.8988 109.124 15.6702 108.884 15.5177C108.666 15.3653 108.362 15.2891 107.97 15.2891C107.36 15.2891 106.816 15.5068 106.336 15.9423C105.857 16.3779 105.618 16.944 105.618 17.6408V27.9623C105.618 28.8769 105.727 29.4975 105.945 29.8241C106.184 30.1508 106.576 30.3141 107.12 30.3141V31C106.707 30.9782 106.097 30.9564 105.291 30.9347C104.486 30.8911 103.658 30.8693 102.809 30.8693C101.894 30.8693 100.969 30.8911 100.033 30.9347C99.0962 30.9564 98.3885 30.9782 97.9094 31V30.3141C98.5845 30.3141 99.0526 30.1508 99.3139 29.8241C99.597 29.4975 99.7385 28.8769 99.7385 27.9623V17.6082C99.7385 16.6283 99.6079 15.9097 99.3466 15.4524C99.0853 14.9733 98.6062 14.7338 97.9094 14.7338V14.0479C98.6062 14.1132 99.2813 14.1459 99.9345 14.1459C101.023 14.1459 102.036 14.1132 102.972 14.0479C103.93 13.9608 104.812 13.841 105.618 13.6886V16.0403C106.14 15.1693 106.837 14.5487 107.708 14.1785C108.601 13.7866 109.635 13.5906 110.811 13.5906ZM127.045 13.5906C128.961 13.5906 130.464 14.1568 131.552 15.2891C132.663 16.3996 133.218 18.2723 133.218 20.9071H122.995L122.929 20.2865H128.449C128.471 19.2195 128.428 18.2396 128.319 17.3469C128.21 16.4323 128.036 15.7028 127.796 15.1584C127.557 14.6141 127.23 14.3419 126.816 14.3419C126.228 14.3419 125.749 14.81 125.379 15.7464C125.009 16.6609 124.769 18.2396 124.66 20.4825L124.791 20.7438C124.769 20.9616 124.758 21.1793 124.758 21.3971C124.758 21.6148 124.758 21.8435 124.758 22.083C124.758 23.6073 124.944 24.794 125.314 25.6433C125.706 26.4925 126.185 27.0804 126.751 27.4071C127.339 27.7337 127.927 27.897 128.515 27.897C128.95 27.897 129.538 27.7881 130.278 27.5704C131.019 27.3309 131.748 26.7103 132.467 25.7086L133.022 25.9046C132.761 26.7756 132.336 27.6466 131.748 28.5176C131.182 29.3668 130.442 30.0745 129.527 30.6407C128.613 31.1851 127.502 31.4573 126.196 31.4573C124.802 31.4573 123.528 31.1742 122.374 30.608C121.242 30.0419 120.338 29.1055 119.663 27.799C118.988 26.4925 118.65 24.7396 118.65 22.5403C118.65 20.4498 119.021 18.7514 119.761 17.4448C120.501 16.1166 121.503 15.1476 122.766 14.5378C124.051 13.9064 125.477 13.5906 127.045 13.5906ZM150.799 14.0479V14.7338C150.385 14.8862 149.982 15.1911 149.59 15.6484C149.22 16.0839 148.85 16.8351 148.479 17.9021L144.397 30.0528L142.731 33.8743L134.892 16.5629C134.521 15.7355 134.173 15.2238 133.846 15.0278C133.52 14.8318 133.237 14.7338 132.997 14.7338V14.0479C133.868 14.1132 134.772 14.1677 135.708 14.2112C136.645 14.233 137.516 14.2439 138.321 14.2439C139.345 14.2439 140.227 14.2221 140.967 14.1785C141.707 14.135 142.404 14.0914 143.057 14.0479V14.7338C142.665 14.7338 142.295 14.7556 141.947 14.7991C141.598 14.8427 141.348 14.9516 141.196 15.1258C141.043 15.2782 141.054 15.5613 141.228 15.975L145.409 25.9046L145.05 26.1659L146.618 21.3644C147.358 19.1651 147.489 17.5319 147.01 16.465C146.531 15.3762 145.812 14.7991 144.854 14.7338V14.0479C145.311 14.0914 145.899 14.1241 146.618 14.1459C147.336 14.1677 147.891 14.1785 148.283 14.1785C148.675 14.1785 149.133 14.1677 149.655 14.1459C150.178 14.1241 150.559 14.0914 150.799 14.0479ZM144.397 30.0528L143.025 34.005C142.633 35.1373 142.154 35.9212 141.588 36.3567C141.304 36.5745 140.923 36.7596 140.444 36.912C139.987 37.0644 139.356 37.1406 138.55 37.1406C137.94 37.1406 137.287 37.0427 136.59 36.8467C135.915 36.6507 135.327 36.3241 134.826 35.8668C134.347 35.4313 134.108 34.8325 134.108 34.0703C134.108 33.3082 134.402 32.6985 134.99 32.2412C135.578 31.7839 136.351 31.5553 137.309 31.5553C138.201 31.5553 138.909 31.7512 139.432 32.1432C139.976 32.5569 140.248 33.1666 140.248 33.9723C140.248 34.4514 140.074 34.9304 139.726 35.4095C139.399 35.8886 138.866 36.2479 138.125 36.4874C138.299 36.5092 138.495 36.52 138.713 36.52C138.931 36.5418 139.105 36.5527 139.236 36.5527C139.933 36.5527 140.553 36.335 141.098 35.8995C141.642 35.4857 142.056 34.8325 142.339 33.9397L143.482 30.3794L144.397 30.0528Z" fill="#32735F"/>
</svg>
